<?xml version="1.0" encoding="UTF-8" standalone="no"?>
<!-- Created with Inkscape (http://www.inkscape.org/) -->

<svg
   xmlns:dc="http://purl.org/dc/elements/1.1/"
   xmlns:cc="http://creativecommons.org/ns#"
   xmlns:rdf="http://www.w3.org/1999/02/22-rdf-syntax-ns#"
   xmlns:svg="http://www.w3.org/2000/svg"
   xmlns="http://www.w3.org/2000/svg"
   xmlns:sodipodi="http://sodipodi.sourceforge.net/DTD/sodipodi-0.dtd"
   xmlns:inkscape="http://www.inkscape.org/namespaces/inkscape"
   width="744.09448819"
   height="1052.3622047"
   id="svg2"
   version="1.1"
   inkscape:version="0.48.1 "
   sodipodi:docname="wrench.svg">
  <defs
     id="defs4" />
  <sodipodi:namedview
     id="base"
     pagecolor="#ffffff"
     bordercolor="#666666"
     borderopacity="1.0"
     inkscape:pageopacity="0.0"
     inkscape:pageshadow="2"
     inkscape:zoom="0.49497475"
     inkscape:cx="588.32509"
     inkscape:cy="622.94537"
     inkscape:document-units="px"
     inkscape:current-layer="layer1"
     showgrid="false"
     inkscape:window-width="1920"
     inkscape:window-height="1178"
     inkscape:window-x="1912"
     inkscape:window-y="-8"
     inkscape:window-maximized="1" />
  <metadata
     id="metadata7">
    <rdf:RDF>
      <cc:Work
         rdf:about="">
        <dc:format>image/svg+xml</dc:format>
        <dc:type
           rdf:resource="http://purl.org/dc/dcmitype/StillImage" />
        <dc:title></dc:title>
      </cc:Work>
    </rdf:RDF>
  </metadata>
  <g
     inkscape:label="Layer 1"
     inkscape:groupmode="layer"
     id="layer1">
    <path
       sodipodi:type="arc"
       style="fill:#55ddff;fill-opacity:1;fill-rule:nonzero;stroke:#00001e;stroke-width:2.0999999;stroke-linecap:round;stroke-linejoin:round;stroke-miterlimit:4;stroke-opacity:1;stroke-dasharray:none"
       id="path2987"
       sodipodi:cx="976.8175"
       sodipodi:cy="716.48645"
       sodipodi:rx="2.0203052"
       sodipodi:ry="0.50507629"
       d="m 978.83781,716.48645 a 2.0203052,0.50507629 0 1 1 -4.04061,0 2.0203052,0.50507629 0 1 1 4.04061,0 z" />
    <path
       style="fill:#55ddff;fill-opacity:1;fill-rule:nonzero;stroke:none"
       d="m 131.2654,133.20982 c -9.9738,10.45048 -20.17397,21.88085 -30.25982,33.99454 -47.505661,57.05703 -74.156381,107.54821 -59.539811,112.7624 14.61657,5.21418 64.974431,-36.83035 112.480091,-93.88738 6.77749,-8.14014 13.12199,-16.11412 18.99164,-23.87421 -18.77957,-3.29399 -34.24468,-14.32773 -41.6721,-28.99535 z"
       id="path3757"
       inkscape:connector-curvature="0" />
    <path
       style="fill:#55ddff;fill-opacity:1;fill-rule:nonzero;stroke:none"
       clip-path="none"
       d="m 184.21875,44.397317 c -34.17309,0.80497 -61.625,28.95337 -61.625,63.593753 0,35.14719 28.25676,63.65625 63.125,63.65625 34.86824,0 63.15625,-28.50906 63.15625,-63.65625 0,-4.50355 -0.46053,-8.886333 -1.34375,-13.125003 l -32.0625,0 -3.90625,33.812503 -29.78125,13.40625 -25.84375,-20.6875 3.96875,-34.062503 24.3125,-10.9375 0,-32 z"
       id="path2985"
       inkscape:connector-curvature="0" />
    <rect
       style="fill:#ffffff;fill-opacity:1;fill-rule:nonzero;stroke:none"
       id="rect3777"
       width="43.436558"
       height="53.538086"
       x="98.994949"
       y="335.15387" />
    <path
       sodipodi:type="arc"
       style="fill:#ffe680;fill-opacity:1;fill-rule:nonzero;stroke:none"
       id="path3851"
       sodipodi:cx="293.92856"
       sodipodi:cy="628.07648"
       sodipodi:rx="6.0714288"
       sodipodi:ry="5.7142859"
       d="m 299.99999,628.07648 a 6.0714288,5.7142859 0 1 1 -12.14286,0 6.0714288,5.7142859 0 1 1 12.14286,0 z"
       transform="translate(-241.42857,-365.71428)" />
    <path
       sodipodi:type="arc"
       style="fill:#ffe680;fill-opacity:1;fill-rule:nonzero;stroke:none"
       id="path3875"
       sodipodi:cx="293.92856"
       sodipodi:cy="628.07648"
       sodipodi:rx="6.0714288"
       sodipodi:ry="5.7142859"
       d="m 299.99999,628.07648 a 6.0714288,5.7142859 0 1 1 -12.14286,0 6.0714288,5.7142859 0 1 1 12.14286,0 z"
       transform="matrix(9.5882351,0,0,9.5625001,-2439.3275,-5625.4046)" />
    <path
       transform="matrix(0.70710678,0.70710678,-0.70710678,0.70710678,320.19895,-181.87569)"
       style="fill:#000000;fill-opacity:1;fill-rule:nonzero;stroke:none"
       d="m 447.14285,295.57648 c 0,70.4163 -30.22078,127.5 -67.5,127.5 -37.27922,0 -67.5,-57.0837 -67.5,-127.5 0,-51.52627 10.96956,-89.45707 32.95148,-108.40318 12.97662,-9.37378 54.04051,-8.27317 63.35096,-1.9147 25.35701,18.34262 38.69756,57.71491 38.69756,110.31788 z"
       id="path3853"
       inkscape:connector-curvature="0"
       sodipodi:nodetypes="sssccs" />
    <path
       transform="matrix(9.5882351,0,0,9.5625001,-2474.3275,-5607.5475)"
       d="m 299.99999,628.07648 a 6.0714288,5.7142859 0 1 1 -12.14286,0 6.0714288,5.7142859 0 1 1 12.14286,0 z"
       sodipodi:ry="5.7142859"
       sodipodi:rx="6.0714288"
       sodipodi:cy="628.07648"
       sodipodi:cx="293.92856"
       id="path3855"
       style="fill:#ffe680;fill-opacity:1;fill-rule:nonzero;stroke:none"
       sodipodi:type="arc" />
    <path
       sodipodi:type="arc"
       style="fill:#ac9393;fill-opacity:1;fill-rule:nonzero;stroke:none"
       id="path3857"
       sodipodi:cx="491.78571"
       sodipodi:cy="255.21933"
       sodipodi:rx="53.214287"
       sodipodi:ry="45.714287"
       d="m 544.99999,255.21933 a 53.214287,45.714287 0 1 1 -106.42857,0 53.214287,45.714287 0 1 1 106.42857,0 z"
       transform="matrix(0.49549227,0.4768204,-0.23226201,0.22350957,260.95887,-63.818089)" />
    <path
       style="fill:#c8ab37;fill-opacity:1;fill-rule:nonzero;stroke:none"
       d="M 257.5 540.21875 C 199.70734 540.21875 152.84375 582.10318 152.84375 633.78125 C 152.84375 685.45932 199.70734 727.375 257.5 727.375 C 315.29266 727.375 362.15625 685.45932 362.15625 633.78125 C 362.15625 582.10318 315.29266 540.21875 257.5 540.21875 z M 256.4375 553.0625 C 305.35415 553.0625 345 590.17676 345 635.9375 C 345 681.69824 305.35415 718.78125 256.4375 718.78125 C 207.52085 718.78125 167.84375 681.69824 167.84375 635.9375 C 167.84375 590.17676 207.52085 553.0625 256.4375 553.0625 z "
       id="path3877" />
    <path
       sodipodi:type="arc"
       style="fill:#c8ab37;fill-opacity:1;fill-rule:nonzero;stroke:none"
       id="path3879"
       sodipodi:cx="95.714287"
       sodipodi:cy="543.07648"
       sodipodi:rx="33.57143"
       sodipodi:ry="113.57143"
       d="m 129.28572,543.07648 a 33.57143,113.57143 0 1 1 -67.142863,0 33.57143,113.57143 0 1 1 67.142863,0 z"
       transform="matrix(0.50000002,0,0,1,210.35714,90)" />
    <path
       transform="matrix(0,0.50000002,-1,0,801.29076,585.21933)"
       d="m 129.28572,543.07648 a 33.57143,113.57143 0 1 1 -67.142863,0 33.57143,113.57143 0 1 1 67.142863,0 z"
       sodipodi:ry="113.57143"
       sodipodi:rx="33.57143"
       sodipodi:cy="543.07648"
       sodipodi:cx="95.714287"
       id="path3881"
       style="fill:#c8ab37;fill-opacity:1;fill-rule:nonzero;stroke:none"
       sodipodi:type="arc" />
    <path
       sodipodi:type="arc"
       style="fill:#c8ab37;fill-opacity:1;fill-rule:nonzero;stroke:none"
       id="path3883"
       sodipodi:cx="95.714287"
       sodipodi:cy="543.07648"
       sodipodi:rx="33.57143"
       sodipodi:ry="113.57143"
       d="m 129.28572,543.07648 a 33.57143,113.57143 0 1 1 -67.142863,0 33.57143,113.57143 0 1 1 67.142863,0 z"
       transform="matrix(-0.36040157,0.34656995,-0.69313987,-0.72080311,669.13782,991.35599)" />
    <path
       transform="matrix(-0.36481961,-0.34191618,0.68383233,-0.72963919,-78.240525,1062.0526)"
       d="m 129.28572,543.07648 a 33.57143,113.57143 0 1 1 -67.142863,0 33.57143,113.57143 0 1 1 67.142863,0 z"
       sodipodi:ry="113.57143"
       sodipodi:rx="33.57143"
       sodipodi:cy="543.07648"
       sodipodi:cx="95.714287"
       id="path3885"
       style="fill:#c8ab37;fill-opacity:1;fill-rule:nonzero;stroke:none"
       sodipodi:type="arc" />
    <g
       id="g3904">
      <path
         transform="matrix(0,0.26595748,-1,0,1112.005,644.04911)"
         d="m 129.28572,543.07648 c 0,62.72376 -15.03044,113.57142 -33.571433,113.57142 -18.540989,0 -33.57143,-50.84766 -33.57143,-113.57142 0,-62.72377 15.030441,-113.57143 33.57143,-113.57143 18.540993,0 33.571433,50.84766 33.571433,113.57143 z"
         sodipodi:ry="113.57143"
         sodipodi:rx="33.57143"
         sodipodi:cy="543.07648"
         sodipodi:cx="95.714287"
         id="path3890"
         style="fill:#c8ab37;fill-opacity:1;fill-rule:nonzero;stroke:none"
         sodipodi:type="arc" />
      <path
         transform="translate(0,2)"
         d="m 485.71427,667.7193 c 0,7.69254 -5.27664,13.92857 -11.78571,13.92857 -6.50907,0 -11.78572,-6.23603 -11.78572,-13.92857 0,-7.69254 5.27665,-13.92857 11.78572,-13.92857 6.50907,0 11.78571,6.23603 11.78571,13.92857 z"
         sodipodi:ry="13.928572"
         sodipodi:rx="11.785714"
         sodipodi:cy="667.7193"
         sodipodi:cx="473.92856"
         id="path3892"
         style="fill:#c8ab37;fill-opacity:1;fill-rule:nonzero;stroke:none"
         sodipodi:type="arc" />
      <path
         sodipodi:type="arc"
         style="fill:#c8ab37;fill-opacity:1;fill-rule:nonzero;stroke:none"
         id="path3898"
         sodipodi:cx="473.92856"
         sodipodi:cy="667.7193"
         sodipodi:rx="11.785714"
         sodipodi:ry="13.928572"
         d="m 485.71427,667.7193 c 0,7.69254 -5.27664,13.92857 -11.78571,13.92857 -6.50907,0 -11.78572,-6.23603 -11.78572,-13.92857 0,-7.69254 5.27665,-13.92857 11.78572,-13.92857 6.50907,0 11.78571,6.23603 11.78571,13.92857 z"
         transform="matrix(0.54545454,0,0,0.71794872,202.92207,190.68822)" />
      <path
         sodipodi:type="arc"
         style="fill:#c8ab37;fill-opacity:1;fill-rule:nonzero;stroke:none"
         id="path3900"
         sodipodi:cx="473.92856"
         sodipodi:cy="667.7193"
         sodipodi:rx="11.785714"
         sodipodi:ry="13.928572"
         d="m 485.71427,667.7193 c 0,7.69254 -5.27664,13.92857 -11.78571,13.92857 -6.50907,0 -11.78572,-6.23603 -11.78572,-13.92857 0,-7.69254 5.27665,-13.92857 11.78572,-13.92857 6.50907,0 11.78571,6.23603 11.78571,13.92857 z"
         transform="matrix(-1,0,0,1,1146.7142,2)" />
      <path
         transform="matrix(-0.54545454,0,0,0.71794872,943.79218,190.68822)"
         d="m 485.71427,667.7193 c 0,7.69254 -5.27664,13.92857 -11.78571,13.92857 -6.50907,0 -11.78572,-6.23603 -11.78572,-13.92857 0,-7.69254 5.27665,-13.92857 11.78572,-13.92857 6.50907,0 11.78571,6.23603 11.78571,13.92857 z"
         sodipodi:ry="13.928572"
         sodipodi:rx="11.785714"
         sodipodi:cy="667.7193"
         sodipodi:cx="473.92856"
         id="path3902"
         style="fill:#c8ab37;fill-opacity:1;fill-rule:nonzero;stroke:none"
         sodipodi:type="arc" />
    </g>
    <g
       id="g3911"
       transform="matrix(0,1,-1,0,1243.0764,96.362174)">
      <path
         sodipodi:type="arc"
         style="fill:#c8ab37;fill-opacity:1;fill-rule:nonzero;stroke:none"
         id="path3913"
         sodipodi:cx="95.714287"
         sodipodi:cy="543.07648"
         sodipodi:rx="33.57143"
         sodipodi:ry="113.57143"
         d="m 129.28572,543.07648 c 0,62.72376 -15.03044,113.57142 -33.571433,113.57142 -18.540989,0 -33.57143,-50.84766 -33.57143,-113.57142 0,-62.72377 15.030441,-113.57143 33.57143,-113.57143 18.540993,0 33.571433,50.84766 33.571433,113.57143 z"
         transform="matrix(0,0.26595748,-1,0,1112.005,644.04911)" />
      <path
         sodipodi:type="arc"
         style="fill:#c8ab37;fill-opacity:1;fill-rule:nonzero;stroke:none"
         id="path3915"
         sodipodi:cx="473.92856"
         sodipodi:cy="667.7193"
         sodipodi:rx="11.785714"
         sodipodi:ry="13.928572"
         d="m 485.71427,667.7193 c 0,7.69254 -5.27664,13.92857 -11.78571,13.92857 -6.50907,0 -11.78572,-6.23603 -11.78572,-13.92857 0,-7.69254 5.27665,-13.92857 11.78572,-13.92857 6.50907,0 11.78571,6.23603 11.78571,13.92857 z"
         transform="translate(0,2)" />
      <path
         transform="matrix(0.54545454,0,0,0.71794872,202.92207,190.68822)"
         d="m 485.71427,667.7193 c 0,7.69254 -5.27664,13.92857 -11.78571,13.92857 -6.50907,0 -11.78572,-6.23603 -11.78572,-13.92857 0,-7.69254 5.27665,-13.92857 11.78572,-13.92857 6.50907,0 11.78571,6.23603 11.78571,13.92857 z"
         sodipodi:ry="13.928572"
         sodipodi:rx="11.785714"
         sodipodi:cy="667.7193"
         sodipodi:cx="473.92856"
         id="path3917"
         style="fill:#c8ab37;fill-opacity:1;fill-rule:nonzero;stroke:none"
         sodipodi:type="arc" />
      <path
         transform="matrix(-1,0,0,1,1146.7142,2)"
         d="m 485.71427,667.7193 c 0,7.69254 -5.27664,13.92857 -11.78571,13.92857 -6.50907,0 -11.78572,-6.23603 -11.78572,-13.92857 0,-7.69254 5.27665,-13.92857 11.78572,-13.92857 6.50907,0 11.78571,6.23603 11.78571,13.92857 z"
         sodipodi:ry="13.928572"
         sodipodi:rx="11.785714"
         sodipodi:cy="667.7193"
         sodipodi:cx="473.92856"
         id="path3919"
         style="fill:#c8ab37;fill-opacity:1;fill-rule:nonzero;stroke:none"
         sodipodi:type="arc" />
      <path
         sodipodi:type="arc"
         style="fill:#c8ab37;fill-opacity:1;fill-rule:nonzero;stroke:none"
         id="path3921"
         sodipodi:cx="473.92856"
         sodipodi:cy="667.7193"
         sodipodi:rx="11.785714"
         sodipodi:ry="13.928572"
         d="m 485.71427,667.7193 c 0,7.69254 -5.27664,13.92857 -11.78571,13.92857 -6.50907,0 -11.78572,-6.23603 -11.78572,-13.92857 0,-7.69254 5.27665,-13.92857 11.78572,-13.92857 6.50907,0 11.78571,6.23603 11.78571,13.92857 z"
         transform="matrix(-0.54545454,0,0,0.71794872,943.79218,190.68822)" />
    </g>
    <g
       transform="matrix(-0.6846625,0.72886025,-0.72886025,-0.6846625,1454.3053,710.59829)"
       id="g3923">
      <path
         transform="matrix(0,0.26595748,-1,0,1112.005,644.04911)"
         d="m 129.28572,543.07648 c 0,62.72376 -15.03044,113.57142 -33.571433,113.57142 -18.540989,0 -33.57143,-50.84766 -33.57143,-113.57142 0,-62.72377 15.030441,-113.57143 33.57143,-113.57143 18.540993,0 33.571433,50.84766 33.571433,113.57143 z"
         sodipodi:ry="113.57143"
         sodipodi:rx="33.57143"
         sodipodi:cy="543.07648"
         sodipodi:cx="95.714287"
         id="path3925"
         style="fill:#c8ab37;fill-opacity:1;fill-rule:nonzero;stroke:none"
         sodipodi:type="arc" />
      <path
         transform="translate(0,2)"
         d="m 485.71427,667.7193 c 0,7.69254 -5.27664,13.92857 -11.78571,13.92857 -6.50907,0 -11.78572,-6.23603 -11.78572,-13.92857 0,-7.69254 5.27665,-13.92857 11.78572,-13.92857 6.50907,0 11.78571,6.23603 11.78571,13.92857 z"
         sodipodi:ry="13.928572"
         sodipodi:rx="11.785714"
         sodipodi:cy="667.7193"
         sodipodi:cx="473.92856"
         id="path3927"
         style="fill:#c8ab37;fill-opacity:1;fill-rule:nonzero;stroke:none"
         sodipodi:type="arc" />
      <path
         sodipodi:type="arc"
         style="fill:#c8ab37;fill-opacity:1;fill-rule:nonzero;stroke:none"
         id="path3929"
         sodipodi:cx="473.92856"
         sodipodi:cy="667.7193"
         sodipodi:rx="11.785714"
         sodipodi:ry="13.928572"
         d="m 485.71427,667.7193 c 0,7.69254 -5.27664,13.92857 -11.78571,13.92857 -6.50907,0 -11.78572,-6.23603 -11.78572,-13.92857 0,-7.69254 5.27665,-13.92857 11.78572,-13.92857 6.50907,0 11.78571,6.23603 11.78571,13.92857 z"
         transform="matrix(0.54545454,0,0,0.71794872,202.92207,190.68822)" />
      <path
         sodipodi:type="arc"
         style="fill:#c8ab37;fill-opacity:1;fill-rule:nonzero;stroke:none"
         id="path3931"
         sodipodi:cx="473.92856"
         sodipodi:cy="667.7193"
         sodipodi:rx="11.785714"
         sodipodi:ry="13.928572"
         d="m 485.71427,667.7193 c 0,7.69254 -5.27664,13.92857 -11.78571,13.92857 -6.50907,0 -11.78572,-6.23603 -11.78572,-13.92857 0,-7.69254 5.27665,-13.92857 11.78572,-13.92857 6.50907,0 11.78571,6.23603 11.78571,13.92857 z"
         transform="matrix(-1,0,0,1,1146.7142,2)" />
      <path
         transform="matrix(-0.54545454,0,0,0.71794872,943.79218,190.68822)"
         d="m 485.71427,667.7193 c 0,7.69254 -5.27664,13.92857 -11.78571,13.92857 -6.50907,0 -11.78572,-6.23603 -11.78572,-13.92857 0,-7.69254 5.27665,-13.92857 11.78572,-13.92857 6.50907,0 11.78571,6.23603 11.78571,13.92857 z"
         sodipodi:ry="13.928572"
         sodipodi:rx="11.785714"
         sodipodi:cy="667.7193"
         sodipodi:cx="473.92856"
         id="path3933"
         style="fill:#c8ab37;fill-opacity:1;fill-rule:nonzero;stroke:none"
         sodipodi:type="arc" />
    </g>
    <g
       id="g3935"
       transform="matrix(-0.73207355,-0.6812256,0.6812256,-0.73207355,536.62349,1550.8501)">
      <path
         sodipodi:type="arc"
         style="fill:#c8ab37;fill-opacity:1;fill-rule:nonzero;stroke:none"
         id="path3937"
         sodipodi:cx="95.714287"
         sodipodi:cy="543.07648"
         sodipodi:rx="33.57143"
         sodipodi:ry="113.57143"
         d="m 129.28572,543.07648 c 0,62.72376 -15.03044,113.57142 -33.571433,113.57142 -18.540989,0 -33.57143,-50.84766 -33.57143,-113.57142 0,-62.72377 15.030441,-113.57143 33.57143,-113.57143 18.540993,0 33.571433,50.84766 33.571433,113.57143 z"
         transform="matrix(0,0.26595748,-1,0,1112.005,644.04911)" />
      <path
         sodipodi:type="arc"
         style="fill:#c8ab37;fill-opacity:1;fill-rule:nonzero;stroke:none"
         id="path3939"
         sodipodi:cx="473.92856"
         sodipodi:cy="667.7193"
         sodipodi:rx="11.785714"
         sodipodi:ry="13.928572"
         d="m 485.71427,667.7193 c 0,7.69254 -5.27664,13.92857 -11.78571,13.92857 -6.50907,0 -11.78572,-6.23603 -11.78572,-13.92857 0,-7.69254 5.27665,-13.92857 11.78572,-13.92857 6.50907,0 11.78571,6.23603 11.78571,13.92857 z"
         transform="translate(0,2)" />
      <path
         transform="matrix(0.54545454,0,0,0.71794872,202.92207,190.68822)"
         d="m 485.71427,667.7193 c 0,7.69254 -5.27664,13.92857 -11.78571,13.92857 -6.50907,0 -11.78572,-6.23603 -11.78572,-13.92857 0,-7.69254 5.27665,-13.92857 11.78572,-13.92857 6.50907,0 11.78571,6.23603 11.78571,13.92857 z"
         sodipodi:ry="13.928572"
         sodipodi:rx="11.785714"
         sodipodi:cy="667.7193"
         sodipodi:cx="473.92856"
         id="path3941"
         style="fill:#c8ab37;fill-opacity:1;fill-rule:nonzero;stroke:none"
         sodipodi:type="arc" />
      <path
         transform="matrix(-1,0,0,1,1146.7142,2)"
         d="m 485.71427,667.7193 c 0,7.69254 -5.27664,13.92857 -11.78571,13.92857 -6.50907,0 -11.78572,-6.23603 -11.78572,-13.92857 0,-7.69254 5.27665,-13.92857 11.78572,-13.92857 6.50907,0 11.78571,6.23603 11.78571,13.92857 z"
         sodipodi:ry="13.928572"
         sodipodi:rx="11.785714"
         sodipodi:cy="667.7193"
         sodipodi:cx="473.92856"
         id="path3943"
         style="fill:#c8ab37;fill-opacity:1;fill-rule:nonzero;stroke:none"
         sodipodi:type="arc" />
      <path
         sodipodi:type="arc"
         style="fill:#c8ab37;fill-opacity:1;fill-rule:nonzero;stroke:none"
         id="path3945"
         sodipodi:cx="473.92856"
         sodipodi:cy="667.7193"
         sodipodi:rx="11.785714"
         sodipodi:ry="13.928572"
         d="m 485.71427,667.7193 c 0,7.69254 -5.27664,13.92857 -11.78571,13.92857 -6.50907,0 -11.78572,-6.23603 -11.78572,-13.92857 0,-7.69254 5.27665,-13.92857 11.78572,-13.92857 6.50907,0 11.78571,6.23603 11.78571,13.92857 z"
         transform="matrix(-0.54545454,0,0,0.71794872,943.79218,190.68822)" />
    </g>
    <g
       transform="matrix(-0.73207355,-0.6812256,0.6812256,-0.73207355,536.62349,1550.8501)"
       id="g3947">
      <path
         transform="matrix(0,0.26595748,-1,0,1112.005,644.04911)"
         d="m 129.28572,543.07648 c 0,62.72376 -15.03044,113.57142 -33.571433,113.57142 -18.540989,0 -33.57143,-50.84766 -33.57143,-113.57142 0,-62.72377 15.030441,-113.57143 33.57143,-113.57143 18.540993,0 33.571433,50.84766 33.571433,113.57143 z"
         sodipodi:ry="113.57143"
         sodipodi:rx="33.57143"
         sodipodi:cy="543.07648"
         sodipodi:cx="95.714287"
         id="path3949"
         style="fill:#c8ab37;fill-opacity:1;fill-rule:nonzero;stroke:none"
         sodipodi:type="arc" />
      <path
         transform="translate(0,2)"
         d="m 485.71427,667.7193 c 0,7.69254 -5.27664,13.92857 -11.78571,13.92857 -6.50907,0 -11.78572,-6.23603 -11.78572,-13.92857 0,-7.69254 5.27665,-13.92857 11.78572,-13.92857 6.50907,0 11.78571,6.23603 11.78571,13.92857 z"
         sodipodi:ry="13.928572"
         sodipodi:rx="11.785714"
         sodipodi:cy="667.7193"
         sodipodi:cx="473.92856"
         id="path3951"
         style="fill:#c8ab37;fill-opacity:1;fill-rule:nonzero;stroke:none"
         sodipodi:type="arc" />
      <path
         sodipodi:type="arc"
         style="fill:#c8ab37;fill-opacity:1;fill-rule:nonzero;stroke:none"
         id="path3953"
         sodipodi:cx="473.92856"
         sodipodi:cy="667.7193"
         sodipodi:rx="11.785714"
         sodipodi:ry="13.928572"
         d="m 485.71427,667.7193 c 0,7.69254 -5.27664,13.92857 -11.78571,13.92857 -6.50907,0 -11.78572,-6.23603 -11.78572,-13.92857 0,-7.69254 5.27665,-13.92857 11.78572,-13.92857 6.50907,0 11.78571,6.23603 11.78571,13.92857 z"
         transform="matrix(0.54545454,0,0,0.71794872,202.92207,190.68822)" />
      <path
         sodipodi:type="arc"
         style="fill:#c8ab37;fill-opacity:1;fill-rule:nonzero;stroke:none"
         id="path3955"
         sodipodi:cx="473.92856"
         sodipodi:cy="667.7193"
         sodipodi:rx="11.785714"
         sodipodi:ry="13.928572"
         d="m 485.71427,667.7193 c 0,7.69254 -5.27664,13.92857 -11.78571,13.92857 -6.50907,0 -11.78572,-6.23603 -11.78572,-13.92857 0,-7.69254 5.27665,-13.92857 11.78572,-13.92857 6.50907,0 11.78571,6.23603 11.78571,13.92857 z"
         transform="matrix(-1,0,0,1,1146.7142,2)" />
      <path
         transform="matrix(-0.54545454,0,0,0.71794872,943.79218,190.68822)"
         d="m 485.71427,667.7193 c 0,7.69254 -5.27664,13.92857 -11.78571,13.92857 -6.50907,0 -11.78572,-6.23603 -11.78572,-13.92857 0,-7.69254 5.27665,-13.92857 11.78572,-13.92857 6.50907,0 11.78571,6.23603 11.78571,13.92857 z"
         sodipodi:ry="13.928572"
         sodipodi:rx="11.785714"
         sodipodi:cy="667.7193"
         sodipodi:cx="473.92856"
         id="path3957"
         style="fill:#c8ab37;fill-opacity:1;fill-rule:nonzero;stroke:none"
         sodipodi:type="arc" />
    </g>
    <path
       id="path3995"
       d="m 573.35712,595.06975 c -42.0151,0 -76.08482,33.41222 -76.08482,74.63708 0,41.22487 34.06972,74.66202 76.08482,74.66202 42.01512,0 76.08483,-33.43715 76.08483,-74.66202 0,-41.22486 -34.06971,-74.63708 -76.08483,-74.63708 z m -0.77243,10.24577 c 35.56228,0 64.38471,29.60695 64.38471,66.11141 0,36.50446 -28.82243,66.08648 -64.38471,66.08648 -35.56228,0 -64.40743,-29.58202 -64.40743,-66.08648 0,-36.50446 28.84515,-66.11141 64.40743,-66.11141 z"
       style="fill:#c8ab37;fill-opacity:1;fill-rule:nonzero;stroke:none"
       inkscape:connector-curvature="0" />
    <path
       inkscape:connector-curvature="0"
       style="fill:#c8ab37;fill-opacity:1;fill-rule:nonzero;stroke:none"
       d="m 573.35712,631.14118 c -23.27927,0 -42.15625,17.26709 -42.15625,38.57167 0,21.30459 18.87698,38.58457 42.15625,38.58457 23.27928,0 42.15625,-17.27998 42.15625,-38.58457 0,-21.30458 -18.87697,-38.57167 -42.15625,-38.57167 z m -0.42798,5.29491 c 19.70396,0 35.67358,15.30056 35.67358,34.16569 0,18.86513 -15.96962,34.15282 -35.67358,34.15282 -19.70396,0 -35.68617,-15.28769 -35.68617,-34.15282 0,-18.86513 15.98221,-34.16569 35.68617,-34.16569 z"
       id="path3997" />
  </g>
</svg>
